<?xml version="1.0" standalone="no"?><!DOCTYPE svg PUBLIC "-//W3C//DTD SVG 1.1//EN" "http://www.w3.org/Graphics/SVG/1.1/DTD/svg11.dtd"><svg t="1594285691544" class="icon" viewBox="0 0 1202 1024" version="1.1" xmlns="http://www.w3.org/2000/svg" p-id="63855" xmlns:xlink="http://www.w3.org/1999/xlink" width="150.25" height="128"><defs><style type="text/css"></style></defs><path d="M950.356164 1024c-7.013699 0-14.027397-3.506849-24.547945-7.013699-35.068493-17.534247-24.547945-63.123288-24.547945-63.123287s87.671233-175.342466 84.164384-389.260274c3.506849-217.424658-84.164384-396.273973-87.671233-396.273973 0 0-10.520548-45.589041 24.547945-63.123288 7.013699-3.506849 17.534247-7.013699 24.547945-7.013698 24.547945 0 38.575342 17.534247 38.575343 17.534246C1080.109589 305.09589 1087.123288 487.452055 1087.123288 557.589041v7.013699c0 70.136986-7.013699 252.493151-101.69863 441.863013 0 0-14.027397 17.534247-35.068494 17.534247z m-210.410959-94.684932c-7.013699 0-14.027397-3.506849-24.547945-7.013698-35.068493-17.534247-24.547945-63.123288-24.547945-63.123288s56.109589-87.671233 66.630137-298.082192c-7.013699-213.917808-63.123288-294.575342-66.630137-298.082191 0 0-10.520548-45.589041 24.547945-63.123288 7.013699-3.506849 17.534247-7.013699 24.547945-7.013699 24.547945 0 38.575342 17.534247 38.575343 17.534247 87.671233 164.821918 80.657534 326.136986 80.657534 347.178082 0 17.534247 7.013699 175.342466-80.657534 354.191781 0 3.506849-14.027397 17.534247-38.575343 17.534246z m-220.931506-119.232876c-7.013699 0-14.027397-3.506849-21.041096-7.013699-7.013699-3.506849-52.60274-38.575342-105.20548-80.657534-122.739726-94.684932-217.424658-168.328767-227.945205-175.342466-3.506849 0-7.013699-3.506849-7.013699-3.506849-3.506849 0-7.013699 3.506849-10.520548 3.506849-7.013699 10.520548-10.520548 28.054795 3.50685 101.69863 10.520548 59.616438 3.506849 87.671233-7.013699 98.191781-3.506849 7.013699-10.520548 10.520548-21.041096 14.027397-10.520548 0-80.657534-7.013699-84.164384-196.383561-3.506849-133.260274 24.547945-182.356164 38.575343-196.383562 10.520548-10.520548 17.534247-10.520548 21.041096-10.520548 21.041096 0 147.287671 105.205479 231.452055 175.342466 101.69863 87.671233 143.780822 119.232877 154.301369 119.232877 7.013699 0 10.520548-3.506849 14.027398-10.520548 17.534247-28.054795 17.534247-140.273973-14.027398-227.945206-38.575342-98.191781 0-115.726027 0-115.726027s10.520548-3.506849 21.041096-3.50685 21.041096 3.506849 28.054795 14.027398c21.041096 24.547945 77.150685 126.246575 77.150685 227.945205 0 105.205479-24.547945 210.410959-49.095891 241.972603-17.534247 21.041096-28.054795 31.561644-42.082191 31.561644z" p-id="63856" fill="#707070"></path></svg>