<?xml version="1.0" standalone="no"?><!DOCTYPE svg PUBLIC "-//W3C//DTD SVG 1.1//EN" "http://www.w3.org/Graphics/SVG/1.1/DTD/svg11.dtd"><svg t="1594285750896" class="icon" viewBox="0 0 1024 1024" version="1.1" xmlns="http://www.w3.org/2000/svg" p-id="66567" xmlns:xlink="http://www.w3.org/1999/xlink" width="128" height="128"><defs><style type="text/css"></style></defs><path d="M0.0005 170.666833c0-47.146954 37.844963-85.333917 85.332917-85.333916h255.99975c47.146954 0 85.333917 37.845963 85.333916 85.333916v255.99975c0 47.145954-37.845963 85.332917-85.333916 85.332917h-255.99975C38.187463 511.9995 0.0005 474.154537 0.0005 426.666583v-255.99975zM701.951815 66.047936a85.247917 85.247917 0 0 1 120.489882 0l151.039852 151.039852c33.279968 33.279968 33.194968 87.252915 0 120.489882l-151.039852 151.039853c-33.279968 33.279968-87.294915 33.194968-120.489882 0l-151.039853-151.039853a85.247917 85.247917 0 0 1 0-120.489882l151.039853-151.039852zM0.0005 682.666333c0-47.146954 37.844963-85.333917 85.332917-85.333916h255.99975c47.146954 0 85.333917 37.845963 85.333916 85.333916v255.99975c0 47.145954-37.845963 85.332917-85.333916 85.332917h-255.99975C38.187463 1023.999 0.0005 986.154037 0.0005 938.666083v-255.99975z m511.9995 0c0-47.146954 37.844963-85.333917 85.332917-85.333916h255.99975c47.146954 0 85.333917 37.845963 85.333916 85.333916v255.99975c0 47.145954-37.845963 85.332917-85.333916 85.332917h-255.99975C550.186963 1023.999 512 986.154037 512 938.666083v-255.99975z" p-id="66568" fill="#707070"></path></svg>