<?xml version="1.0" standalone="no"?><!DOCTYPE svg PUBLIC "-//W3C//DTD SVG 1.1//EN" "http://www.w3.org/Graphics/SVG/1.1/DTD/svg11.dtd"><svg t="1594285781706" class="icon" viewBox="0 0 1024 1024" version="1.1" xmlns="http://www.w3.org/2000/svg" p-id="67427" xmlns:xlink="http://www.w3.org/1999/xlink" width="128" height="128"><defs><style type="text/css"></style></defs><path d="M632.79311 480.983589c-4.473895-1.490957-21.62553-8.947789-29.827329-11.930727-41.013089-13.422707-119.31034-17.150612-173.746136 0l-1.490957 0-33.556257 12.676717c-73.078389 29.082362-123.039267 64.129576-162.561399 114.836445-42.504046 56.672744-64.129576 120.80232-64.129576 190.896748 0 18.642592 9.69378 37.284161 28.336372 55.926754 12.676717 12.676717 30.573319 23.862477 46.232974 32.810267l29.082362 13.422707 0.74599 0c67.112514 27.590382 148.392702 41.759079 241.60464 41.759079 2.982938 0 5.965875 0 8.948813 0 64.129576 0 126.022205-8.948813 182.694949-26.099425 56.672744-15.659655 98.431823-36.538171 126.768195-64.129576 18.642592-17.896602 28.336372-35.793204 28.336372-54.435797 0-70.094428-21.62553-134.969994-64.129576-190.896748C757.323335 545.859155 705.125509 509.319961 632.79311 480.983589zM538.090215 568.974619l0 250.552429c0 0.74599 0 2.236947 0 2.982938 0 1.49198 0 2.236947 0 3.728928 0 0.74599 0 0.74599 0 1.490957l-0.74599 2.236947-0.74599 2.236947-1.490957 2.982938c-0.74599 0.74599-1.490957 2.236947-2.236947 2.982938-0.74599 0.74599-1.490957 1.490957-1.490957 2.236947-1.490957 1.49198-2.236947 2.236947-2.982938 2.236947-1.490957 0.74599-2.236947 0.74599-2.236947 0.74599-0.74599 0-2.236947 0-2.982938 0l-14.913665 0c-1.490957 0-2.982938 0-3.727904 0-0.74599 0-1.49198-0.74599-2.236947-0.74599s-0.74599-0.74599-1.490957-0.74599l-1.490957-1.49198c-0.74599-0.74599-0.74599-0.74599-1.490957-1.49198l-5.219885-6.711865-0.74599-2.982938c-0.74599-1.490957-0.74599-2.236947-1.490957-4.473895 0-0.74599 0-2.982938 0-5.219885L490.36833 569.720609l0-2.236947-0.74599-2.236947c0-0.74599 0.74599-2.237971 0.74599-2.982938l0.74599-2.236947 0.74599-2.236947 5.219885-7.456832c0.74599-0.74599 0.74599-0.74599 1.490957-1.490957 1.490957-1.49198 2.236947-2.236947 2.982938-2.236947 0.74599-0.74599 1.490957-0.74599 2.236947-0.74599 2.236947-0.74599 2.982938-0.74599 2.982938-0.74599l14.913665 0c0.74599 0 1.490957 0.74599 2.236947 0.74599l0.74599 0c0 0.74599 0.74599 0.74599 1.490957 0.74599 0.74599 0 0.74599 0.74599 1.490957 0.74599l1.490957 1.49198c0.74599 0.74599 1.490957 1.490957 2.982938 2.982938 0.74599 0.74599 1.490957 1.49198 1.490957 2.236947l0.74599 1.49198 1.490957 1.49198 0.74599 2.982938c0.74599 1.490957 0.74599 2.236947 1.490957 4.473895C538.090215 565.246715 538.090215 567.483662 538.090215 568.974619z" p-id="67428" fill="#50c03a"></path><path d="M687.228907 262.495436c0-32.810267-9.69378-64.875566-27.590382-93.211938l-6.710842-10.43977-11.930727 0c-5.965875 0-11.930727 2.236947-16.405645 5.965875-4.473895 2.982938-8.948813 5.219885-13.422707 6.711865-6.710842 2.236947-13.422707 4.473895-20.87954 6.711865l-7.456832 1.49198c-5.219885 0.74599-10.43977 2.237971-16.405645 2.982938-8.202822 1.49198-17.150612 2.236947-25.353434 2.982938-8.948813 0.74599-17.150612 0.74599-26.845415 0.74599-9.69378 0-18.642592 0-26.845415-0.74599-10.43977-0.74599-17.150612-1.490957-25.353434-2.982938l-2.236947 0c-7.456832-0.74599-14.167674-1.49198-20.133549-3.728928l-2.236947-0.74599c-4.473895-0.74599-11.18576-2.982938-16.405645-5.219885l-3.728928-1.49198c-5.219885-2.982938-9.69378-4.473895-13.422707-6.711865 0-0.74599-0.74599-0.74599-0.74599-0.74599l-17.896602-17.896602-14.913665 23.116487c-17.896602 28.336372-27.590382 59.655681-27.590382 92.465948 0 95.448886 76.060303 171.509189 173.000146 172.255179C610.422613 434.004625 687.228907 357.198332 687.228907 262.495436z" p-id="67429" fill="#50c03a"></path><path d="M535.853267 557.043892l-1.490957-1.49198-0.74599-1.49198c0-0.74599-0.74599-1.49198-1.490957-2.236947-1.490957-1.49198-2.236947-2.236947-2.982938-2.982938l-1.490957-1.49198c-0.74599 0-0.74599-0.74599-1.490957-0.74599-0.74599 0-1.490957 0-1.490957-0.74599l-0.74599 0c-0.74599 0-1.490957-0.74599-2.236947-0.74599l-14.913665 0c0 0-0.74599 0-2.982938 0.74599-0.74599 0-1.490957 0-2.236947 0.74599-0.74599 0-1.490957 0.74599-2.982938 2.236947-0.74599 0.74599-0.74599 0.74599-1.490957 1.490957l-5.219885 7.456832-0.74599 2.236947-0.74599 2.236947c0 0.74599-0.74599 2.236947-0.74599 2.982938l0.74599 2.236947 0 2.236947 0 249.807463c0 2.236947 0 4.473895 0 5.219885 0.74599 2.236947 0.74599 2.982938 1.490957 4.473895l0.74599 2.982938 5.219885 6.711865c0.74599 0.74599 0.74599 0.74599 1.490957 1.49198l1.490957 1.49198c0.74599 0 0.74599 0.74599 1.490957 0.74599s1.490957 0.74599 2.236947 0.74599c0.74599 0 2.236947 0 3.727904 0l14.913665 0c0.74599 0 2.236947 0 2.982938 0 0 0 0.74599 0 2.236947-0.74599 0.74599 0 1.490957-0.74599 2.982938-2.236947 0-0.74599 0.74599-1.490957 1.490957-2.236947 0.74599-0.74599 1.490957-2.236947 2.236947-2.982938l1.490957-2.982938 0.74599-2.236947 0.74599-2.236947c0-0.74599 0-0.74599 0-1.490957 0-1.49198 0-2.236947 0-3.728928 0-0.74599 0-2.236947 0-2.982938L538.089192 568.974619c0-1.49198 0-3.728928 0-4.473895-0.74599-2.236947-0.74599-2.982938-1.490957-4.473895L535.853267 557.043892z" p-id="67430" fill="#50c03a"></path><path d="M829.655733 589.855182c-47.723931-64.875566-110.36255-111.10854-184.931896-137.952932l-37.284161-13.422707 30.573319-25.353434c45.486984-37.284161 71.586408-91.719958 71.586408-151.375639 0-108.125603-87.992053-196.862623-196.862623-196.862623s-196.862623 87.992053-196.862623 196.862623c0 58.909691 26.099425 114.090455 70.840418 151.375639l26.099425 21.62553-35.047214 17.150612c-74.569346 26.844392-135.715985 73.077366-182.694949 137.952932-48.469921 69.349461-72.332399 143.918807-72.332399 227.435942 0 10.43977 7.456832 23.862477 20.87954 38.776142 10.43977 10.43977 26.845415 22.370497 47.723931 35.047214l33.556257 15.659655c79.789231 34.301224 175.983083 52.198849 287.091624 52.198849 82.772168 1.490957 157.341514-8.948813 228.927923-31.31931 64.129576-18.642592 111.10854-43.996027 140.189879-74.569346 13.422707-13.422707 20.133549-25.353434 20.133549-35.793204C901.988132 733.027999 878.871645 658.458653 829.655733 589.855182zM342.718549 261.750469c0-32.810267 9.69378-64.129576 27.590382-92.465948l14.913665-23.116487 17.896602 17.896602c0 0 0.74599 0 0.74599 0.74599 3.727904 2.236947 8.202822 3.728928 13.422707 6.711865l3.728928 1.49198c5.219885 2.236947 11.930727 4.473895 16.405645 5.219885l2.236947 0.74599c5.965875 2.236947 12.676717 2.982938 20.133549 3.728928l2.236947 0c8.202822 1.49198 14.913665 2.236947 25.353434 2.982938 8.202822 0.74599 17.150612 0.74599 26.845415 0.74599 9.69378 0 17.896602 0 26.845415-0.74599 8.202822-0.74599 17.150612-1.490957 25.353434-2.982938 5.965875-0.74599 11.18576-2.236947 16.405645-2.982938l7.456832-1.49198c7.456832-2.236947 14.167674-4.473895 20.87954-6.711865 4.473895-1.49198 8.948813-3.728928 13.422707-6.711865 4.473895-3.727904 10.43977-5.965875 16.405645-5.965875l11.930727 0 6.710842 10.43977c17.896602 28.336372 27.590382 60.400648 27.590382 93.211938 0 94.702895-76.806293 171.509189-171.509189 171.509189C418.779875 433.259658 342.718549 357.198332 342.718549 261.750469zM831.892681 841.152579c-28.336372 27.590382-70.095451 48.469921-126.768195 64.129576-56.672744 17.151635-118.565373 26.099425-182.694949 26.099425-2.982938 0-5.965875 0-8.948813 0-93.211938 0-174.492126-14.168698-241.60464-41.759079l-0.74599 0-29.082362-13.422707c-15.659655-8.948813-33.556257-20.133549-46.232974-32.810267-18.642592-18.642592-28.336372-37.284161-28.336372-55.926754 0-70.095451 21.62553-134.225027 64.129576-190.896748 39.522132-50.706869 89.483011-85.755106 162.561399-114.836445l33.556257-12.676717 1.490957 0c54.435797-17.150612 132.733047-13.422707 173.746136 0 8.202822 2.982938 25.353434 10.43977 29.827329 11.930727 72.332399 28.336372 124.530225 64.875566 163.306366 114.836445 42.504046 55.926754 64.129576 120.80232 64.129576 190.896748C860.229053 805.359374 850.535273 823.255976 831.892681 841.152579z" p-id="67431" fill="#50c03a"></path></svg>